<?xml version="1.0" encoding="UTF-8"?><svg id="b" xmlns="http://www.w3.org/2000/svg" viewBox="0 0 439.8 1266.9"><g id="c"><path d="M235.5,114c0,1.2-1.2,2.3-4.2,3-2.6.5-2.8,1.4-3.7,3.9-9.1,24.2-20,38.2-21.7,38.2s-.4-.2-.4-.5c0-.5.2-1.2.7-2.3,4.9-10.3,11.7-33.8,11.7-48.5s.3-1.8.3-1.8c2.1,0,17.2,4.6,17.2,8.1ZM273.2,90.2c0,4.4-2.8,7.4-5.8,7.4s-4.9-2.1-5.8-7c-.2-1.4-.7-2.8-1.1-4l-10.3,3c1.1.5,1.8,1.1,1.8,1.8s-.7,1.6-2.1,2.3q-2.5,1.2-2.5,16.6c0,14.4.3,35.8.7,50.1v.3c0,3.3-3.2,6.1-6.7,6.1s-4.4-1.4-4.4-5.1v-.7c1.2-18.6,1.8-37.5,1.8-56.1s-.2-8.9-.3-12.6c-7.4,1.8-14.2,3.5-17.5,4.2-1.8.3-2.8,2.1-4,2.1-2.8,0-8.2-13.1-8.2-13.3s.2-.4.4-.4c.3,0,.7.2,1.2.2,4,.5,8.9.7,12.3.7h4.7c6.1-8.9,25.4-38.4,27.7-52.6.2-1.4.2-1.8.5-1.8.7,0,15.4,6.5,15.4,9.6s-1.4,2.3-4.7,2.6c-1.8.2-2.6,1.1-3.9,2.6-9.3,12.8-22.3,29.8-31.2,39.1,9.3-.5,20.5-1.2,28.4-2.1-1.9-4.6-4.4-8.8-6.3-11.7-.7-1.1-1.1-1.8-1.1-2.1s.2-.3.3-.3c3.3,0,20.7,10.9,20.7,21ZM252.6,18.6c0,1.2-1.4,2.5-4.6,3-2.1.3-2.8.9-3.9,2.6-3.7,6.8-10.7,17.4-15.8,24,1.4.7,9.3,4.6,9.3,11s-2.3,6.3-5.3,6.3-4.2-1.4-6-4.7c-3.7-7-8.9-11.2-13-14.5-1.1-.9-1.6-1.6-1.6-1.9s.3-.5,1.1-.5c1.8,0,7.2.7,12.6,3,3.7-9.1,10-27.3,10-34.4v-1.9c0-.7,0-.9.4-.9.9,0,16.6,6,16.6,8.9ZM274.5,132.7c0,4.4-2.8,7.5-5.6,7.5s-4.7-1.9-5.8-6.5c-2.1-8.2-5.6-17.5-9.5-23.5-.7-1.1-1.1-1.8-1.1-2.1s.2-.3.3-.3c1.9,0,21.6,13.1,21.6,24.9ZM356.1,36.7c0,1.2-.7,2.3-3.3,2.3h-38.9c-.5,2.5-1.4,4.7-2.3,6.8,9.8.3,36.6,6.1,36.6,17.9s-2.3,6-5.3,6-4.9-1.4-7.5-4.6c-6.5-7.7-16.8-13.5-24.5-17.5-8.6,18.6-27.2,22.4-42.4,24.5-.7.2-1.4.2-1.9.2-1.1,0-1.6-.2-1.6-.5,0-.5,1.4-1.4,3-1.8,23.7-6.1,32.4-17.4,35.8-30.8-6.8.2-15.1.4-24.9,1.4h-.2c-2.8,0-7.4-6.3-7.4-8.2,11.9,1.6,24.4,2.1,33.3,2.3.7-3.9.9-10.2.9-13.3s-.2-4-.9-8.4v-.7q0-.2.2-.2c.2,0,17.4,1.8,17.4,6s-.9,2.3-2.8,3.2c-2.5,1.1-3.3-.3-3.7,5.8-.2,2.8-.5,5.4-.9,7.9h18.6c.5,0,1.8-.5,2.3-1.4.2-.3,4.9-7.9,7-7.9s.7.2,1.1.2c.9.3,12.4,6.5,12.4,11ZM368.6,79.8c0,.9-.9,1.8-3.5,1.8h-18.6c1.1.4,1.6.9,1.6,1.6s-.7,1.4-1.9,1.9c-3.2,1.4-3.2,1.2-3.2,6.7-.2,8.1-.5,20-.5,29.8s.7,23.7.9,25.2v1.2c0,13.7-13,18.1-18.4,18.1s-2.5-.5-3.5-2.1c-2.8-4.4-19.1-11.6-19.1-12.8s.2-.3.5-.3,1.1.2,2.1.3c7.7,1.6,13.3,2.5,17.5,2.5,7.4,0,10-2.6,10.3-8.1.3-4,.3-13.5.3-23.8,0-19.6-.3-37.2-.9-40.1h-17.5c-11,0-27.2.7-37.2,2.3h-.2c-2.8,0-7.9-6.8-7.9-8.8,15.2,1.4,36.8,2.1,45.7,2.1h29.1c.5,0,1.8-.5,2.3-1.4,2.1-3.5,6.1-8.4,7.5-8.4s.7.2,1.1.2c1.2.5,13.3,7.5,13.3,12.3ZM322.8,101c0,1.8-2.3,3-3.7,4-2.5,1.9-2.6,2.8-2.6,7.9s.5,10,1.1,17v.4c0,2.8-1.8,5.6-5.6,5.6s-4-1.4-4-4.6v-.2l.2-3.7h-18.8c0,3.3.2,6.5.2,9.5s-.7,5.3-5.8,5.3-4-1.2-4-4.2v-.5c.9-11.9,1.1-18.4,1.1-27s-.5-11.9-1.8-18.6c-.2-.5-.2-1.1-.2-1.2s0-.4.2-.4c2.3,0,13.1,7,13.7,7.5l.4.2h11.7c.7,0,1.6-.5,2.1-1.4.7-1.4,2.3-3.7,3.2-4.4.3-.4.7-.5,1.4-.5,1.2,0,11.4,6.1,11.4,9.3ZM307.9,104.7c0-.5-.2-2.1-1.9-2.1h-13.5l-.9.7c-2.5,1.9-2.5,2.6-2.5,9.1s0,6.5.2,10.5h18.8c0-6.3,0-13.5-.2-18.2Z" style="fill:#00a8c0"/><path d="M351.4,250c0,1.1-.7,2.1-3.5,2.1h-40.8s.2.2.4.2c1.2.3,1.9,1.1,1.9,1.6s-.7,1.4-2.1,2.1-1.9,1.2-2.1,4c0,1.2-.2,3-.2,4.7h19.8c.7,0,1.8-.5,2.3-1.4,2.5-3.3,4-4.7,4.9-4.7,2.8,0,12.3,6.1,12.3,8.9s-1.9,2.6-3.5,3.5c-2.3,1.4-3,2.3-3,4.6s.5,6.5,1.1,9.5v.5c0,3.5-4.2,4.9-6,4.9s-4.6-1.2-4.6-4.2v-.2h-88.9c-6.3,45.4-33.5,54.7-33.5,54.7-.2,0-.4-.2-.4-.4,0-.3,1.1-1.6,3.2-3.5,19.6-18.2,21.9-48,21.9-67.8v-6.3c0-3.2-.5-15.1-1.8-19.8v-.3c-1.4-.5-2.5-1.4-2.5-3.3v-.7c.9-6.8.7-11.4.9-16.1,0-1.9-.5-8.6-1.8-14.2-.2-.5-.2-.9-.2-1.1,0-.4.2-.5.4-.5,1.4,0,9.6,3.2,13,5.6l.7.3h26.5c.7,0,1.4-.5,1.9-1.2,1.4-2.3,4-3.9,4.7-3.9,3,0,10.5,6,10.5,7.7s-1.8,2.3-3.2,3c-2.5,1.4-2.8,2.8-2.8,6.5s.5,6.3.9,10.7v.3c0,2.6-1.9,5.1-5.3,5.1s-3.9-1.2-3.9-4v-.2c.2-3.3.3-7.2.3-11s-.2-4.9-.3-7.2c0-.5-.4-1.4-1.6-1.4h-28.6l-.9.5c-1.1.7-2.1,1.6-2.1,7.9s.5,8.2.5,12.6-1.9,3.9-4,4.4c3.2,1.1,8.8,3.2,12.3,5.3l.7.5h36.1v-3.2c0-1.8-.3-6.8-1.4-11.4,0-.3-.2-.5-.2-.7,0-.4.2-.4.5-.4,2.6,0,8.6.7,13,1.6.3-3.7.5-7.7.7-11.7,0-1.9-.5-8.6-1.8-14.2-.2-.5-.2-.9-.2-1.1,0-.4.2-.5.3-.5,1.4,0,9.6,3.2,13,5.6l.5.3h27.3c.7,0,1.6-.5,2.1-1.2.5-.9,2.6-3.9,4.6-3.9,2.8,0,11.2,5.4,11.2,7.7s-1.8,2.3-3.2,3c-2.5,1.4-2.8,2.1-2.8,6.5s.5,5.4.9,9.8v.5c0,3-3.2,4.9-5.6,4.9s-4-1.2-4-4v-.2c.2-3.3.3-7,.3-10.5s-.2-4.6-.3-6.8c0-.5-.5-1.4-1.8-1.4h-29.3l-.9.5c-.5.3-2.3,1.6-2.3,7.9s.4,6.1.5,10.3v.2c0,2.8-3.2,4.6-5.8,4.6s-1.4-.2-2.1-.5c-.2,0-.4.2-.5.2-2.3.9-2.8,1.1-3,4.2v3.9h34.7c1.1,0,2.3-.5,2.8-1.2,1.2-1.6,6-7.7,8.1-7.7s14.5,6.8,14.5,10.7ZM286.9,200c0,1.1-.9,2.3-3.7,2.3h-30.3c-5.4,0-21.7,0-29.8,1.4h-.2c-2.1,0-6.7-5.3-6.7-8.1,10.2,1.9,31.4,2.5,37,2.5h10.7c.5,0,1.6-.7,2.1-1.6,1.2-2.1,5.3-8.2,7.4-8.2s.9.2,1.2.2c4.9,2.1,12.3,9.5,12.3,11.6ZM359.5,327.8c0,1.8-1.1,10.5-35.4,10.5s-25.8-4.7-25.8-12.3v-.5c0-1.4.2-4,.2-6.7-7.7,5.1-36.3,14-57.3,20-1.6.5-2.3,2.1-3.3,2.1-1.6,0-8.9-10.9-8.9-12.4s0-.2.3-.2h.9c2.3.2,4.9.2,7.2.2,4.4,0,6.8-.2,14-1.4,0-6.5,0-17,.2-22.4v-1.6c0-5.6-.7-10.5-1.6-14,0-.4-.2-.5-.2-.7,0-.7.5-.7,1.8-.7,1.6.2,15.4,2.1,15.4,4.9s-1.9,2.5-4.2,3.5c-.9.3-1.8.2-1.9,5.6,0,1.4-.2,2.6-.2,4.2h11.4c.4,0,1.8-.2,2.3-.9,1.8-2.5,3.2-5.4,5.4-7.7.4-.3.7-.3,1.2-.3,3.2,0,12.6,8.1,12.6,10.7s-.7,2.3-3.3,2.3h-29.8c0,5.4.2,11.4.2,15.6,12.3-2.3,26.5-5.3,35.8-7.9.9-.4,1.6-.4,2.1-.4.2-4.6.4-9.5.4-11.4s0-10.7-1.4-16.8c-.2-.5-.2-.9-.2-1.2s.2-.3.7-.3c2.5,0,16.8,2.5,16.8,5.6s-1.2,2.1-3.7,3.2c-2.6,1.2-2.8,1.8-3,5.6l-.5,10.3c15.8-6.8,24.5-12.3,28-18.9.2-.5.4-.9.7-.9,1.6,0,11,11.2,11,14.2s-.9,1.6-2.5,1.6-1.9-.2-3.2-.5c-.9-.3-1.6-.5-2.3-.5s-.9,0-1.4.2c-4.2,1.4-21.4,6.3-30.7,8.2v4.9c0,8.1.5,9.3,19.3,9.3s20.2-3.7,23.8-23c.2-.9.4-1.4.5-1.4,1.1,0,2.1,15.9,5.1,17.7,2.3,1.4,3.3,3,3.3,4.7ZM261.8,231.2c0,3-1.9,5.6-4.7,5.6s-3.5-1.1-5.3-3.3c-2.5-3-7.4-6.3-11.4-8.4-1.1-.5-1.6-.9-1.6-1.1,0-.5,9.1-1.4,9.5-1.4,8.4,0,13.5,3.2,13.5,8.6ZM240.6,268.7c-.2,4.2-.3,8.6-.9,13.3h23.8c.2-4.2.3-8.6.3-13.3h-23.3ZM263.8,262.2c-.2-4-.2-7-.5-10.2h-18.8c-.4.3-.9.5-1.6.9-1.9.9-2.3.7-2.3,3.7v8.1h23.1v-2.5ZM273.1,268.7c0,4.7-.2,9.8-.2,13.3h22.8c.2-3.5.2-8.4.2-13.3h-22.8ZM295.7,262.2c-.2-4-.2-7-.5-10.2h-20s.2.2.4.2c1.4.5,1.8,1.1,1.8,1.8s-.9,1.8-1.9,2.1c-1.6.7-1.9,1.1-2.1,3.9,0,1.2-.2,3-.2,4.7h22.6v-2.5ZM357.4,200.2c0,1.1-.9,2.1-3.5,2.1h-32.1c-5.4,0-19.6,0-27.5,1.4h-.2c-2.1,0-6.5-5.3-6.5-8.1,10,1.9,28.9,2.5,34.5,2.5h12.3c.5,0,1.6-.7,2.1-1.6.2-.3,4.9-8.2,7.5-8.2s.7.2,1.1.2c4.9,2.1,12.3,8.9,12.3,11.7ZM328.3,270.8c0-.5-.2-2.1-2.1-2.1h-21.2c0,4.9-.2,10-.2,13.3h23.5v-11.2ZM328.1,231.2c0,3-1.9,5.6-4.7,5.6s-3.5-1.1-5.3-3.3c-2.5-3-7.2-6.3-11.2-8.4-1.1-.7-1.8-.9-1.8-1.1,0,0,3.9-1.4,9.5-1.4,8.4,0,13.5,3.2,13.5,8.6Z" style="fill:#00a8c0"/><path d="M246.9,488.3c0,4,.5,7.2,1.2,10,.2,1.1.3,1.9.3,2.8,0,3.5-2.1,5.6-4.7,5.6-10.3,0-13.8-26.5-13.8-36.3,0-19.6,7-35.8,9.8-50.3.9-4.4,1.2-8.4,1.2-11.9,0-9.3-2.3-15.4-3.9-18.1-.7-1.4-2.1-2.6-2.1-3.3s1.2-1.1,3.5-1.1c5.6,0,13.5,8.9,13.5,20.7s-1.9,11-4.7,18.1c-4.7,11.4-9.8,24.9-9.8,36.8s1.6,11.9,2.8,11.9,1.4-.7,2.3-2.8c4.7-10.5,14.7-32.3,17.4-32.3s.5.2.5.7-.3,1.8-.9,3.2c-5.1,12.3-12.6,34.4-12.6,46.3ZM337.2,483.6c5.8,0,8.9,2.6,8.9,5.6,0,8.2-17.4,10.3-27.2,10.3-33.3,0-38.7-18.8-38.7-22.6s.3-1.6.9-1.6c.9,0,2.1,1.1,3.5,3.2,3.7,5.3,15.6,8.9,28.7,8.9s6.5-.2,9.8-.7c4-.5,6.5-2.8,13-3.2h1.1ZM308.8,419.3c-24,0-26.3-14.2-26.3-15.4s.2-.7.5-.7c.5,0,1.6.5,3,1.4,5.3,3,11.2,4.2,17.5,4.2s9.6-.7,14.5-1.6c2.5-.5,4.4-1.8,6.7-2.3,1.2-.4,2.5-.4,3.7-.4,4.9,0,7.9,2.5,7.9,5.3,0,8.2-21.7,9.5-27.5,9.5Z"/><path d="M291.8,686c-15.4,0-38.2-7.4-38.2-51.9s4-38.9,4-58-.9-16.5-4.9-20.9c-1.6-1.8-2.3-2.8-2.3-3.5s.7-1.1,1.9-1.1,18.4,0,18.4,18.6-.2,3.7-.5,5.8c-1.9,13.1-8.4,40.3-8.4,62.2s.9,37.3,31.9,37.3,34.7-7.7,51.9-22.6c1.4-1.2,2.6-1.9,3.2-1.9s.4.2.4.3c0,3-25.8,35.6-57.3,35.6Z"/><path d="M347.5,743.8c0,2.8-2.6,5.4-8.4,5.4s-2.6-.2-4-.4c-3-.5-6.1-.7-9.5-.7-10.2,0-20.3,2.3-25.2,4.9-12.8,6.8-21.9,34-21.9,56.6,0,35.8,22.8,37.2,28,37.2s6.7-.5,10.3-1.8c1.6-.5,3.2-.7,4.6-.7,4.7,0,7.9,2.6,7.9,5.8,0,7-14.2,9.5-21.2,9.5s-36.8-3-36.8-44.3,7.5-46.6,16.8-56.3c1.2-1.2,2.1-2.1,2.1-2.5,0,0,0-.2-.2-.2-1.8,0-21.9,8.4-39.1,17.4-3.5,1.8-7.5,2.6-11.6,2.6-7.9,0-15.1-3.3-15.1-9.3s.2-1.8,1.4-1.8,2.5.5,3.7.7c2.6.4,5.4.9,8.6.9s6.5-.5,10.2-1.8c8.2-2.8,38.9-19.3,65.5-26.3,3.7-.9,6.5-3,14.2-3.5h.9c16.1,0,18.8,5.6,18.8,8.4Z"/><path d="M75.2,339.5c-25.4,0-25.6-35.1-25.6-40.5s0-6,.2-8.9c-11-3.7-14.9-11.7-14.9-16.8,0-7.9,6.8-16.3,19.8-25.6l.5-3.7c-14.9-7.2-20.3-19.3-20.3-22.8s.2-1.2.7-1.2,1.6.9,2.5,2.1c2.8,3.9,9.6,9.1,18.6,12.3,1.6-11.6,1.6-17.9,1.6-19.6,0-8.6-1.4-17.4-7.2-20.9-1.2-.7-1.8-1.2-1.8-1.8,0-1.6,3.2-2.3,4-2.3,1.8,0,15.8,3.9,15.8,18.9s-1.8,12.4-3,19.1c-.5,2.6-1.1,5.4-1.6,8.4,1.6.2,4.4.3,5.6.9,3.7,1.8,5.4,3.9,5.4,5.8s-1.2,3-3.7,3.9c-3.2,1.2-6.3,2.3-10.5,4.4-1.9,9.8-3.9,20.3-5.1,30.7.9,0,1.8.2,2.6.2,1.4,0,2.6-.2,4-.4,2.3-.3,4.2-1.8,6.5-1.9h1.2c5.4,0,9.1,2.3,9.1,4.9,0,4.2-9.5,7.2-18.2,7.2s-4.2-.2-6.1-.5c0,1.8-.2,3.7-.2,5.4,0,29.8,13.5,33.1,19.6,33.1,10.3,0,23.3-11.2,23.3-28.7s-7.4-27.2-18.8-39.1c-2.3-2.5-5.1-5.6-5.1-6.7s.2-.2.4-.2c1.8,0,34.4,20.7,34.4,48.2s-18.6,36.1-33.8,36.1ZM39.4,270.8c0,1.6.5,7,10.9,10.2.7-9.1,2.1-18.1,3.3-26.6-6.8,3.2-14.2,10.2-14.2,16.5Z"/><path d="M55.7,517.9c-1.2,0-1.9,0-1.9-.4s2.3-1.2,7.5-2.5c32.8-7.9,48-26.8,48-40.5s-10-18.9-20.2-18.9-8.4,1.2-12.3,4.2c-7.9,6-11.2,11.9-18.2,21.4-2.8,3.7-5.1,5.3-7.5,5.3-4.7,0-14.9-6.5-14.9-26.1s1.9-21.7,3.2-31c.3-1.6.9-6.5.9-11.2s0-3-.2-4.2c-.2-1.2-.2-2.3-.2-3.3,0-13.8,12.1-19.3,22.4-25.2,1.4-.9,4.4-2.8,4.4-5.1s-.2-.5-.2-.7c-1.1-3.9-3.7-6-4.6-7.7-.7-1.1-1.2-2.3-1.2-3s.2-.7.7-.7c4,0,24.2,11.4,24.2,21.2s-3.3,7.7-6.5,7.7-4.2-.9-6.5-1.6c-3.3-1.2-8.4-1.8-12.1-1.8-10.2,0-13.1,6.5-13.1,12.1s.2,3.5.7,4.9c1.1,3.3,1.4,5.8,1.4,8.2,0,4-1.2,7.7-2.8,15.6-1.2,6.5-2.5,14.7-2.5,21.6,0,13,3.9,14.9,6.1,14.9s3.5-1.1,6-2.6c4.2-2.8,9.1-7.9,17.4-13.3,5.6-3.7,12.4-5.8,18.8-5.8,14.2,0,28.2,11,28.2,25.1,0,27.2-36.5,43.5-65,43.5Z"/><path d="M97.1,685.6c-5.1,0-27-.5-27-19.5s1.1-7.4,1.6-10.5c.2-1.4.4-2.5.4-3.5,0-5.1-2.8-6.8-6.3-6.8s-16.3.5-25.9,23.5c-3,7-8.6,10-12.6,10s-5.6-1.6-5.6-4.6c0-4.4,5.3-10.7,19.5-24.2l8.1-8.1c25.1-25.4,35.6-36.6,35.6-42.1s-.5-3.5-5.4-3.5-13.8,11.4-19.8,14.4c-2.8,1.6-5.4,2.1-8.1,2.1-9.3,0-16.6-9.3-16.6-16.1s.2-1.1.5-1.1c.7,0,2.3,1.1,5.1,2.1,4.7,1.9,7,2.8,10.2,2.8s3.3-.2,5.8-.7c10.7-2.3,15.9-10.7,28-10.7s14.5,5.1,14.5,10.3-8.6,11.6-13.3,15.8c-11.6,10.5-25.9,22.8-29.6,26.8-.5.5-.9.9-.9,1.2,0,0,0,.2.4.2s.5-.2,1.2-.3c2.8-1.1,6.1-1.8,9.5-1.8,6.3,0,12.1,2.6,12.1,10.9s0,1.8-.2,2.8c-.4,2.8-1.2,5.8-1.2,8.9,0,8.9,8.1,11.7,15.8,11.7s13.1-1.6,22.1-5.1c1.9-.7,3.9-1.1,5.4-1.1,4.6,0,7.7,2.5,7.7,5.3,0,7.9-21.4,10.7-30.7,10.7ZM87.5,567.9c0,4.4-2.5,5.3-5.8,5.3s-5.1-.5-7.5-.5c-6,0-14.9,1.6-17.5,2.3-1.4.3-2.6.7-3.3.7s-.5-.2-.5-.4c0-.3.5-.9,2.1-1.9,4-2.6,10.2-5.3,12.1-6.3,1.1-.5,3.3-1.6,3.3-3.2s-.4-1.2-1.6-2.1c-7.2-5.1-10-11-10-13.7s.2-.9.7-.9,1.6.5,3.3,2.3c7.9,7.9,24.4,6.1,24.7,17.9v.5Z"/><path d="M109.7,856.7c0,3.5-2.3,6.1-5.3,6.1s-4.6-1.2-6.7-4.6c-3.5-5.3-8.6-10-14.7-13.7-3.7,13-18.6,22.1-31.4,22.1s-22.1-9.6-22.1-17.9c0-13.3,21.7-17.9,35.2-17.9s5.8.2,8.6.7c0-4.4-.3-9.1-.5-14-.4-5.3-.5-10.7-.5-16.3-9.8,2.5-19.6,2.5-20.7,2.5-22.4,0-27.9-11.6-27.9-12.6s.5-.9,1.2-.9c1.1,0,2.8.5,4.2,1.1,7.2,2.5,13.7,3.5,20.9,3.5s18.1-1.8,22.3-2.8c0-8.6.4-17.2.9-25.4-1.4.2-2.8.2-4.2.2-21.6,0-26.5-13.5-26.5-17.2s.3-.9.7-.9c.7,0,2.1.9,3.3,1.6,5.6,3.3,13.3,7.5,22.3,7.5s2.8-.2,4.2-.4c.3,0,.5-.2.9-.2.2-2.8.5-5.4.9-8.1.5-4,1.6-13.1,1.6-18.4s-1.6-7-4.6-8.1c-2.5-.9-4-1.6-4-2.6s3.7-4.7,7.4-4.7,11.9,8.1,11.9,13-1.1,5.3-1.9,9.1c0,0-1.1,1.9-3.5,17.5l2.1-1.1c3.3-1.9,6.3-3.7,9.5-3.7s4.6.5,4.6,4c0,6-13.7,10.2-17.2,11-.5,6.1-.7,12.3-.7,18.6v5.8c10-3.3,14.5-6.5,14.5-8.9s-4.2-5.6-7.5-8.2c-.3-.2-.5-.5-.5-.9s.2-.4.7-.4.7,0,1.2.4c3.9,1.8,11,4.6,15.1,4.7,3.9.2,6.1,1.9,6.1,4.6,0,8.2-22.6,16.3-29.3,18.2.4,6.3,1.1,12.4,1.6,18.6.5,5.3,1.6,10.9,1.8,16.3,17.9,6,26.1,17.5,26.1,22.6ZM58.9,837.8c-4.6,0-23.1.9-23.1,10.2s5.1,8.9,14.2,8.9,20.2-5.6,23.1-16.8c-4.6-1.4-9.3-2.3-14.2-2.3Z"/><path d="M143.2,935.5c0,2.5-2.1,4.4-5.8,4.4s-2.8-.2-4.6-.7c-11-3.3-23.3-4.7-35.9-4.7s-8.6.2-12.8.5c-.4,5.6-.5,10.5-.5,15.1,0,6.8.4,12.4.5,16.7,5.1,5.4,6.5,12.1,6.5,18.4,0,34.4-38.4,57-48.4,57s-1.1-.2-1.1-.5c0-.5,1.4-1.8,4.6-3.2,8.4-3.7,27.7-20.7,32.8-42.8-2.5,3-5.4,4.9-8.9,5.8-.9.2-1.6.2-2.3.2-3.9,0-6.8-2.1-8.4-4.6-3.7-5.8-7.2-11.7-7.2-20.9s7.5-16.7,16-16.7,6.1.7,9.1,2.1c0-6.8-.2-15.6-.3-25.9-16.1,1.9-31.7,6-44.7,11.6-3.5,1.6-7.9,2.8-12.6,2.8-8.9,0-19.1-5.3-19.1-13.8s.7-2.3,1.8-2.3,2.3.7,3.7,2.1,6.8,1.9,10,1.9,6.3-.2,9.5-.7c17.7-2.6,34.4-5.3,51.5-7.4,0-5.4-.2-11.2-.2-17.2s-2.8-10-6.8-12.6c-1.1-.7-1.4-1.1-1.4-1.8,0-1.2,1.9-3.7,7-3.7s12.6.9,12.6,13.1-.3,3.9-.7,6.1c-1.1,5.3-1.8,10.2-2.3,14.9,7-.7,14.4-1.2,21.9-1.6,1.8-.2,2.6-.5,2.6-1.1s-.3-.5-.7-.7c-4.2-2.6-14.4-10.3-14.4-10.9s.2-.2.4-.2c1.1,0,3.5.9,4.9,1.6,8.2,4,17.2,7.4,23.7,8.4,16.1,2.3,20.2,7.7,20.2,11ZM65.2,963.9c-4.4,0-8.2,3.2-8.2,9.5s1.9,17,12.4,17,8.2-7.7,8.2-12.8-.2-3.5-.5-5.3c-4-8.1-10.3-8.4-11.9-8.4Z"/><path d="M85.7,1132.9c0,36.5-19.3,55.4-37.2,55.4s-4.6-.4-6.5-1.1c-7.7-2.5-4.4-8.9-6.5-15.4-.9-3-1.4-4.9-1.4-6s.2-.7.3-.7c.7,0,2.3,1.6,4.6,4.7,3.2,4.4,7.7,7,12.4,7,14.9,0,25.4-24.7,25.4-47.5s-2.8-20.2-10.2-20.2-5.3.3-13.1,6c-8.4,20-22.4,48-32.3,66.3-3.5,6.5-8.6,9.6-11.9,9.6s-3.9-1.2-3.9-4,1.6-6.5,5.4-11.7c8.4-11.4,25.8-36.8,34.9-57.7-5.3,2.6-17,7.5-21.9,7.5-8.1,0-13.7-5.6-13.7-12.8s1.1-6.3,1.4-6.3c.9,0,2.1,1.6,3.3,3.3,2.5,3.2,6.5,3.9,10.9,3.9,8.9,0,16.5-2.1,23.5-4.6.5-1.6,3.3-11.6,3.3-19.3s-1.4-9.6-5.6-10.3c-2.1-.3-3.9-1.2-3.9-2.5,0-2.5,7.4-6,11-6s9.1.9,9.1,11-1.6,10.3-6.1,24.2c6.3-2.1,8.6-2.3,10.5-2.3,9.6,0,17.9,6.1,17.9,29.3ZM144.9,1136c0,8.9-5.4,16.3-11.7,16.3s-2.5-.4-3.5-.9c-1.1-.7-3.2-.9-6.3-.9s-5.8.2-9.6.2-5.4-.3-5.4-.9,2.1-1.2,5.1-1.8c12.3-2.5,19.5-5.4,19.5-14.9,0-13.5-14-17.9-23.1-21.6-3.9-1.4-5.8-2.3-5.8-2.8s.9-.4,2.3-.4c23.3,0,38.7,12.4,38.7,27.5Z"/><path d="M218.2,1103.1c.1,5.6,16.2,16.5,24.1,16.4-7.9.1-23.5,11.6-23.3,17.2-.1-5.6-16.2-16.5-24.1-16.4,7.9-.1,23.5-11.6,23.3-17.2Z" style="fill:#00a8c0"/><path d="M264.1,1102.3c.1,5.6,16.2,16.5,24.1,16.4-7.9.1-23.5,11.6-23.3,17.2-.1-5.6-16.2-16.5-24.1-16.4,7.9-.1,23.5-11.6,23.3-17.2Z" style="fill:#00a8c0"/><path d="M258.7,1096.5c-5.7.1-16.7,15.9-16.5,23.7-.2-7.8-11.9-23.2-17.5-23.1,5.7-.1,16.7-15.9,16.5-23.7.2,7.8,11.9,23.2,17.5,23.1Z" style="fill:#00a8c0"/><path d="M259.8,1141.8c-5.7.1-16.7,15.9-16.5,23.7-.2-7.8-11.9-23.2-17.5-23.1,5.7-.1,16.7-15.9,16.5-23.7.2,7.8,11.9,23.2,17.5,23.1Z" style="fill:#00a8c0"/><path d="M392.9,885.9c0,2.9,8.3,8.5,12.3,8.4-4,0-12,6-12,8.8,0-2.9-8.3-8.5-12.3-8.4,4,0,12-6,12-8.8Z" style="fill:#ff5260"/><path d="M416.4,885.5c0,2.9,8.3,8.5,12.3,8.4-4,0-12,6-12,8.8,0-2.9-8.3-8.5-12.3-8.4,4,0,12-6,12-8.8Z" style="fill:#ff5260"/><path d="M413.7,882.5c-2.9,0-8.5,8.2-8.4,12.2,0-4-6.1-11.9-9-11.8,2.9,0,8.5-8.2,8.4-12.2,0,4,6.1,11.9,9,11.8Z" style="fill:#ff5260"/><path d="M414.2,905.8c-2.9,0-8.5,8.2-8.4,12.2,0-4-6.1-11.9-9-11.8,2.9,0,8.5-8.2,8.4-12.2,0,4,6.1,11.9,9,11.8Z" style="fill:#ff5260"/><path d="M29.2,128.6c0,2.9,8.3,8.5,12.3,8.4-4,0-12,6-12,8.8,0-2.9-8.3-8.5-12.3-8.4,4,0,12-6,12-8.8Z" style="fill:#ff5260"/><path d="M52.7,128.1c0,2.9,8.3,8.5,12.3,8.4-4,0-12,6-12,8.8,0-2.9-8.3-8.5-12.3-8.4,4,0,12-6,12-8.8Z" style="fill:#ff5260"/><path d="M50,125.2c-2.9,0-8.5,8.2-8.4,12.2,0-4-6.1-11.9-9-11.8,2.9,0,8.5-8.2,8.4-12.2,0,4,6.1,11.9,9,11.8Z" style="fill:#ff5260"/><path d="M50.5,148.4c-2.9,0-8.5,8.2-8.4,12.2,0-4-6.1-11.9-9-11.8,2.9,0,8.5-8.2,8.4-12.2,0,4,6.1,11.9,9,11.8Z" style="fill:#ff5260"/><path d="M80.3,29.7c.1,5.6,16.2,16.5,24.1,16.4-7.9.1-23.5,11.6-23.3,17.2-.1-5.6-16.2-16.5-24.1-16.4,7.9-.1,23.5-11.6,23.3-17.2Z" style="fill:#00a8c0"/><path d="M126.2,28.8c.1,5.6,16.2,16.5,24.1,16.4-7.9.1-23.5,11.6-23.3,17.2-.1-5.6-16.2-16.5-24.1-16.4,7.9-.1,23.5-11.6,23.3-17.2Z" style="fill:#00a8c0"/><path d="M120.9,23.1c-5.7.1-16.7,15.9-16.5,23.7-.2-7.8-11.9-23.2-17.5-23.1,5.7-.1,16.7-15.9,16.5-23.7.2,7.8,11.9,23.2,17.5,23.1Z" style="fill:#00a8c0"/><path d="M121.9,68.4c-5.7.1-16.7,15.9-16.5,23.7-.2-7.8-11.9-23.2-17.5-23.1,5.7-.1,16.7-15.9,16.5-23.7.2,7.8,11.9,23.2,17.5,23.1Z" style="fill:#00a8c0"/><path d="M408.9,1011.6c-13.4-6-27-11.2-27-11.2,0,0,2-32.4,3.5-53.4.4-5-8.3.3-18,9.6-10.9,10.3-26.1,34.2-26.1,34.2,0,0-14-15.9-35.2-31.7-21.2-15.8-47.9-21.2-64.5-23.7-16.6-2.5-35.1-.4-40.1,8.5-6.9,12.2-5.7,28.1,1.2,44.8,8.3,20.3,34.8,44.1,82.6,48.9,41,4.1,72.6-14.8,72.6-14.8,0,0,20.9,8.5,43.7,11.2,22.7,2.6,37.8-2.8,38.2-4.5.3-1.1-17.5-11.7-30.8-17.7ZM233.8,971c-7.2-.8-12.4-7.3-11.5-14.4.8-7.1,7.4-12.2,14.6-11.4,7.2.8,12.4,7.3,11.5,14.4-.8,7.1-7.4,12.2-14.6,11.4Z" style="fill:#ff5260"/><circle cx="132.7" cy="1234.1" r="30.8" style="fill:none;stroke:#000;stroke-miterlimit:10;stroke-width:4px"/></g></svg>