<?xml version="1.0" encoding="UTF-8"?><svg id="b" xmlns="http://www.w3.org/2000/svg" viewBox="0 0 508.8 7"><g id="c"><path d="M1.5,1.5c12,0,12,4,24.1,4S37.6,1.5,49.7,1.5s12,4,24.1,4,12-4,24.1-4,12,4,24.1,4,12-4,24.1-4,12,4,24.1,4,12-4,24.1-4,12,4,24.1,4,12-4,24.1-4,12,4,24.1,4,12-4,24.1-4,12,4,24.1,4,12-4,24.1-4,12,4,24.1,4,12-4,24.1-4,12,4,24.1,4,12-4,24.1-4,12,4,24.1,4,12-4,24.1-4,12,4,24.1,4" style="fill:none;stroke:#bbf1f9;stroke-linecap:round;stroke-linejoin:round;stroke-width:3px"/></g></svg>